<svg width="40" height="44" viewBox="0 0 40 44" fill="none" xmlns="http://www.w3.org/2000/svg">
<path d="M26.3539 25.9586C26.4875 25.9586 26.6196 25.9301 26.7413 25.8752C29.7445 24.5244 33.3026 21.6043 33.4453 17.8206C33.4501 17.6977 33.4305 17.575 33.3876 17.4596C33.3446 17.3443 33.2793 17.2385 33.1952 17.1482C33.1112 17.058 33.0101 16.9851 32.8977 16.9338C32.7853 16.8824 32.6638 16.8536 32.5403 16.849C32.4167 16.8444 32.2934 16.864 32.1775 16.9068C32.0615 16.9496 31.9552 17.0147 31.8646 17.0984C31.7739 17.1821 31.7008 17.2828 31.6492 17.3946C31.5977 17.5064 31.5689 17.6273 31.5644 17.7502C31.461 20.4915 28.6779 22.9494 25.9656 24.1692C25.7695 24.2575 25.6097 24.4099 25.5129 24.601C25.4161 24.7922 25.3881 25.0106 25.4335 25.2198C25.4789 25.4291 25.595 25.6165 25.7625 25.7509C25.93 25.8854 26.1387 25.9586 26.3539 25.9586H26.3539Z" fill="black" fill-opacity="0.4"/>
<path d="M34.8236 33.7003C34.6233 33.7012 34.4233 33.7137 34.2246 33.7376L32.1446 27.025C34.1483 25.4976 35.7717 23.532 36.889 21.2804C38.0064 19.0288 38.5878 16.5517 38.5883 14.0407C38.5882 13.7924 38.4891 13.5543 38.3126 13.3787C38.1361 13.2032 37.8967 13.1045 37.6471 13.1045H6.58826C6.33865 13.1045 6.09927 13.2032 5.92277 13.3787C5.74626 13.5543 5.6471 13.7924 5.64709 14.0407C5.64829 14.9822 5.73099 15.9218 5.89427 16.8492H0.941207C0.691591 16.8492 0.4522 16.9478 0.275695 17.1234C0.0991901 17.299 3.05176e-05 17.5371 3.05176e-05 17.7854C3.05176e-05 18.0337 0.0991901 18.2718 0.275695 18.4474C0.4522 18.6229 0.691591 18.7215 0.941207 18.7215H6.33574C7.36208 22.1231 9.46826 25.1025 12.3391 27.214L8.4975 42.8396C8.46786 42.9591 8.46221 43.0833 8.48087 43.205C8.49953 43.3267 8.54214 43.4435 8.60626 43.5488C8.67037 43.6541 8.75474 43.7458 8.85452 43.8186C8.9543 43.8914 9.06755 43.944 9.18777 43.9732C9.30799 44.0025 9.43283 44.0078 9.55514 43.989C9.67745 43.9702 9.79483 43.9276 9.90056 43.8636C10.0063 43.7996 10.0983 43.7155 10.1713 43.6161C10.2443 43.5167 10.2969 43.404 10.3261 43.2844L11.1863 39.7854H29.737C29.9162 40.747 30.367 41.6379 31.0368 42.3539C31.7065 43.0699 32.5675 43.5812 33.5189 43.8281C34.4702 44.075 35.4726 44.0472 36.4087 43.7479C37.3447 43.4487 38.1757 42.8904 38.8043 42.1384C39.4329 41.3864 39.8331 40.4718 39.9581 39.5018C40.083 38.5317 39.9276 37.5463 39.5099 36.661C39.0922 35.7756 38.4296 35.0269 37.5997 34.5026C36.7697 33.9783 35.8068 33.7 34.8236 33.7003ZM7.55956 14.9769H36.6758C36.4365 18.6556 34.7987 22.1058 32.0948 24.6269C29.3909 27.1481 25.8238 28.5511 22.1177 28.5511C18.4116 28.5511 14.8444 27.1481 12.1405 24.6269C9.43666 22.1058 7.7988 18.6556 7.55956 14.9769ZM14.0116 28.2936C16.5326 29.7176 19.3877 30.4522 22.2866 30.4228C25.1856 30.3934 28.025 29.601 30.5163 28.126L32.4262 34.29C31.7318 34.6524 31.129 35.1668 30.6632 35.7943C30.1975 36.4218 29.8808 37.1462 29.737 37.913H11.6466L14.0116 28.2936ZM34.8236 42.1258C34.172 42.1258 33.5352 41.9336 32.9934 41.5736C32.4517 41.2136 32.0295 40.7018 31.7802 40.1031C31.5309 39.5044 31.4656 38.8456 31.5927 38.21C31.7198 37.5744 32.0336 36.9905 32.4943 36.5323C32.955 36.0741 33.5419 35.762 34.1809 35.6356C34.8199 35.5091 35.4822 35.574 36.0842 35.822C36.6861 36.07 37.2006 36.49 37.5625 37.0288C37.9245 37.5677 38.1177 38.2012 38.1177 38.8492C38.1167 39.7179 37.7693 40.5508 37.1518 41.165C36.5342 41.7793 35.6969 42.1248 34.8236 42.1258Z" fill="black" fill-opacity="0.4"/>
<path d="M29.8741 5.71002C30.3454 7.11587 30.5177 8.10598 29.9228 8.69794C29.8354 8.78486 29.766 8.88805 29.7187 9.00163C29.6713 9.11521 29.647 9.23696 29.6469 9.35991C29.6469 9.48286 29.6713 9.60461 29.7186 9.71821C29.7658 9.8318 29.8352 9.93502 29.9226 10.022C30.01 10.1089 30.1138 10.1779 30.228 10.2249C30.3422 10.2719 30.4646 10.2961 30.5882 10.2961C30.7118 10.2961 30.8342 10.2719 30.9484 10.2248C31.0626 10.1777 31.1663 10.1087 31.2537 10.0217C32.7909 8.4927 32.0551 6.29741 31.6599 5.11828L31.423 4.41158C30.9683 3.06172 30.7107 2.13653 31.2537 1.59621C31.4294 1.42051 31.5279 1.18266 31.5275 0.934834C31.5272 0.687006 31.4281 0.449425 31.2519 0.274184C31.0757 0.0989438 30.8369 0.000347918 30.5877 1.6099e-05C30.3386 -0.00031572 30.0994 0.0976436 29.9228 0.272414C28.5147 1.67278 29.1643 3.59975 29.6383 5.00675L29.8741 5.71002Z" fill="black" fill-opacity="0.4"/>
<path d="M21.4035 5.71002C21.8748 7.11587 22.0471 8.10598 21.4522 8.69794C21.3648 8.78486 21.2954 8.88805 21.2481 9.00163C21.2008 9.11521 21.1764 9.23696 21.1764 9.35991C21.1764 9.48286 21.2007 9.60461 21.248 9.71821C21.2953 9.8318 21.3646 9.93502 21.452 10.022C21.5394 10.1089 21.6432 10.1779 21.7574 10.2249C21.8716 10.2719 21.994 10.2961 22.1176 10.2961C22.2412 10.2961 22.3636 10.2719 22.4778 10.2248C22.592 10.1777 22.6957 10.1087 22.7831 10.0217C24.3203 8.4927 23.5846 6.29741 23.1894 5.11828L22.9525 4.41158C22.4977 3.06172 22.2402 2.13653 22.7831 1.59621C22.9588 1.42051 23.0573 1.18266 23.057 0.934834C23.0566 0.687006 22.9575 0.449425 22.7813 0.274184C22.6052 0.0989438 22.3663 0.000347918 22.1172 1.6099e-05C21.868 -0.00031572 21.6289 0.0976436 21.4522 0.272414C20.0442 1.67278 20.6937 3.59975 21.1678 5.00675L21.4035 5.71002Z" fill="black" fill-opacity="0.4"/>
<path d="M12.8123 5.88258C13.267 7.23244 13.5246 8.15764 12.9816 8.69795C12.8942 8.78486 12.8249 8.88805 12.7775 9.00164C12.7302 9.11522 12.7058 9.23696 12.7058 9.35991C12.7058 9.48286 12.7301 9.60461 12.7774 9.71821C12.8247 9.83181 12.894 9.93502 12.9814 10.022C13.0688 10.1089 13.1726 10.1779 13.2868 10.2249C13.401 10.2719 13.5234 10.2961 13.647 10.2961C13.7706 10.2961 13.893 10.2719 14.0072 10.2248C14.1214 10.1777 14.2252 10.1087 14.3125 10.0218C15.7206 8.62138 15.071 6.69442 14.597 5.28742L14.3612 4.58415C13.89 3.17829 13.7176 2.18819 14.3125 1.59622C14.4882 1.42051 14.5867 1.18267 14.5864 0.934841C14.586 0.687014 14.4869 0.449432 14.3107 0.274192C14.1346 0.0989515 13.8957 0.000355548 13.6466 2.37284e-05C13.3974 -0.000308091 13.1583 0.0976513 12.9816 0.272422C11.4444 1.80147 12.1802 3.99676 12.5754 5.17589L12.8123 5.88258Z" fill="black" fill-opacity="0.4"/>
</svg>
